<svg width="735" height="375" viewBox="0 0 735 375" fill="none" xmlns="http://www.w3.org/2000/svg">
<g opacity="0.2">
<path d="M136.87 217.654L214.64 172.753C220.606 169.309 221.922 165.394 217.752 162.986L212.287 159.831C205.24 155.762 200.393 156.9 192.333 158.398L78.919 178.045C73.2835 178.974 70.0076 180.035 64.4678 183.233L57.0103 187.539C51.4705 190.737 50.4317 193.828 54.1709 195.987L93.0005 218.405L73.3981 229.723C68.0714 232.798 67.0326 235.889 70.7717 238.047L80.2634 243.527C84.0026 245.686 89.1427 245.209 94.4695 242.134L114.285 230.694L120.9 234.513C124.639 236.672 129.993 236.072 135.532 232.874L140.646 229.921C146.186 226.723 147.369 223.715 143.486 221.473L136.87 217.654ZM91.4252 191.416L160.97 179.163L115.586 205.365L91.4252 191.416Z" fill="url(#paint0_linear_3352_109472)"/>
<path d="M275.939 276.54C318.766 251.814 331.204 225.536 306.9 211.504C282.595 197.471 237.08 204.653 194.253 229.379C151.426 254.105 138.987 280.384 163.291 294.416C187.596 308.448 233.112 301.267 275.939 276.54ZM216.256 242.083C243.316 226.46 268.692 220.444 280.053 227.003C291.414 233.563 281.139 248.297 254.079 263.92C227.232 279.42 201.712 285.352 190.351 278.793C178.99 272.234 189.409 257.583 216.256 242.083Z" fill="url(#paint1_linear_3352_109472)"/>
<path d="M359.771 321.251C373.647 322.373 388.908 319.374 402.97 311.255C425.556 298.216 427.661 281.225 408.677 270.265C397.46 263.788 382.348 260.722 364.776 261.402C358.347 261.627 353.931 263.014 351.971 266.803L348.391 272.855C346.43 276.644 348.524 278.59 354.809 278.283C364.807 277.658 373.756 279.134 380.371 282.954C388.568 287.687 387.29 295.067 377.702 300.603C367.9 306.262 355.468 306.465 347.702 301.981L341.662 298.494C337.779 296.252 332.783 296.812 327.03 300.133L321.703 303.209C316.163 306.407 314.981 309.415 318.864 311.657L323.466 314.314C334.108 320.458 334.55 328.34 322.831 335.106C311.538 341.626 297.902 342.856 288.842 337.625C281.507 333.39 279.489 325.09 281.7 318.002C283.154 313.675 278.078 313.45 272.299 314.296L259.882 315.985C253.602 316.787 251.487 319.503 250.528 323.378C247.572 334.218 251.982 345.621 264.206 352.679C285.778 365.134 318.137 363.888 342.853 349.618C358.62 340.515 363.515 330.547 359.771 321.251Z" fill="url(#paint2_linear_3352_109472)"/>
</g>
<g opacity="0.3">
<path d="M115.65 221.595L168.28 191.209C172.318 188.878 172.325 185.719 168.154 183.311L162.689 180.156C155.643 176.087 151.897 176.589 145.56 177.093L55.9771 182.981C51.5124 183.233 49.0631 183.817 45.3141 185.982L40.2673 188.895C36.5183 191.06 36.5127 193.554 40.2518 195.713L79.0814 218.131L65.8158 225.79C62.2109 227.871 62.2053 230.366 65.9444 232.524L75.4361 238.005C79.1753 240.163 83.3512 240.243 86.956 238.162L100.366 230.42L106.981 234.239C110.72 236.398 115.04 236.395 118.789 234.23L122.25 232.232C125.999 230.068 126.149 227.657 122.266 225.415L115.65 221.595ZM70.2052 195.358L125.079 191.575L94.3658 209.307L70.2052 195.358Z" fill="url(#paint3_linear_3352_109472)"/>
<path d="M248.726 283.942C277.709 267.208 280.781 246.338 256.476 232.306C232.172 218.274 196.023 220.047 167.04 236.78C138.058 253.513 134.986 274.384 159.291 288.416C183.595 302.448 219.744 300.675 248.726 283.942ZM189.044 249.484C207.356 238.911 226.947 236.236 238.308 242.795C249.669 249.355 245.179 260.748 226.867 271.321C208.698 281.81 188.964 284.403 177.603 277.843C166.242 271.284 170.876 259.973 189.044 249.484Z" fill="url(#paint4_linear_3352_109472)"/>
<path d="M331.526 329.248C343.473 331.484 355.428 330.394 364.944 324.9C380.229 316.075 377.237 302.027 358.253 291.067C347.036 284.59 333.509 280.61 318.967 279.54C313.64 279.129 310.326 279.879 309.743 282.873L308.436 287.613C307.853 290.606 310.153 292.434 315.337 292.762C323.544 293.172 331.459 295.244 338.075 299.064C346.272 303.796 347.266 309.865 340.778 313.611C334.145 317.441 323.779 316.451 316.013 311.967L309.973 308.48C306.09 306.238 302.058 306.241 298.165 308.489L294.56 310.57C290.811 312.734 290.661 315.146 294.544 317.387L299.146 320.044C309.788 326.189 312.365 332.838 304.435 337.417C296.793 341.829 285.705 341.588 276.645 336.357C269.31 332.122 265.294 324.975 265.163 319.239C265.171 315.747 260.853 315.085 256.244 315.255L246.308 315.512C241.267 315.599 240.255 317.678 240.535 320.837C241.091 329.65 247.981 339.621 260.205 346.679C281.777 359.133 308.557 361.108 325.283 351.452C335.953 345.291 337.267 337.392 331.526 329.248Z" fill="url(#paint5_linear_3352_109472)"/>
</g>
<path d="M103.73 212.798L157.223 181.914C161.326 179.545 161.333 176.334 157.095 173.887L151.54 170.68C144.378 166.545 140.571 167.055 134.13 167.566L43.0791 173.551C38.5413 173.808 36.0518 174.401 32.2414 176.601L27.112 179.563C23.3015 181.763 23.2958 184.298 27.0962 186.492L66.5621 209.277L53.079 217.062C49.4151 219.177 49.4094 221.712 53.2098 223.906L62.857 229.476C66.6574 231.67 70.9017 231.752 74.5656 229.636L88.1952 221.767L94.9191 225.649C98.7195 227.843 103.11 227.84 106.921 225.64L110.438 223.609C114.249 221.41 114.4 218.959 110.454 216.68L103.73 212.798ZM57.5403 186.131L113.313 182.286L82.0969 200.308L57.5403 186.131Z" fill="url(#paint6_linear_3352_109472)"/>
<path d="M238.987 276.166C268.444 259.159 271.566 237.946 246.864 223.684C222.161 209.422 185.42 211.224 155.962 228.232C126.505 245.239 123.383 266.452 148.085 280.714C172.788 294.976 209.529 293.173 238.987 276.166ZM178.326 241.144C196.939 230.398 216.85 227.679 228.398 234.345C239.945 241.012 235.381 252.593 216.769 263.339C198.303 274 178.245 276.635 166.698 269.968C155.151 263.301 159.86 251.805 178.326 241.144Z" fill="url(#paint7_linear_3352_109472)"/>
<path d="M323.143 322.215C335.286 324.488 347.437 323.38 357.109 317.795C372.644 308.826 369.603 294.548 350.308 283.408C338.907 276.826 325.158 272.78 310.378 271.693C304.964 271.274 301.596 272.037 301.003 275.08L299.675 279.897C299.083 282.94 301.42 284.797 306.689 285.131C315.03 285.547 323.075 287.654 329.799 291.536C338.131 296.346 339.141 302.514 332.546 306.322C325.805 310.214 315.269 309.208 307.376 304.651L301.237 301.106C297.29 298.828 293.192 298.831 289.235 301.115L285.571 303.231C281.761 305.431 281.609 307.881 285.555 310.16L290.233 312.86C301.049 319.105 303.669 325.864 295.608 330.517C287.841 335.002 276.571 334.757 267.363 329.44C259.908 325.136 255.826 317.872 255.693 312.042C255.701 308.493 251.312 307.82 246.628 307.992L236.528 308.254C231.406 308.342 230.376 310.455 230.662 313.666C231.227 322.623 238.229 332.758 250.653 339.931C272.579 352.59 299.798 354.597 316.798 344.782C327.643 338.521 328.979 330.492 323.143 322.215Z" fill="url(#paint8_linear_3352_109472)"/>
<path opacity="0.6" d="M427.637 139.5L300.637 171.5L532.637 304.5L670.637 249L427.637 139.5Z" fill="url(#paint9_linear_3352_109472)"/>
<path d="M301.552 0L524.704 127.966L524.67 300.771L301.518 172.805L301.552 0Z" fill="white"/>
<path d="M286.75 42.5869L344.41 75.6533V91.5211L286.75 58.4888V42.5869Z" fill="url(#paint10_linear_3352_109472)"/>
<path opacity="0.5" d="M316.592 86.1982L444.618 159.634V165.059L316.592 91.624V86.1982Z" fill="#D2D2E5"/>
<path opacity="0.5" d="M316.592 97.1177L427.035 160.452V165.878L316.592 102.543V97.1177Z" fill="#D2D2E5"/>
<path opacity="0.5" d="M316.592 107.935L410.585 161.851V167.277L316.592 113.36V107.935Z" fill="#D2D2E5"/>
<path opacity="0.5" d="M402.996 176.729L515.568 241.293V289.305L402.996 224.742V176.729Z" fill="url(#paint11_linear_3352_109472)"/>
<path opacity="0.5" d="M411.479 191.096L428.443 200.822V216.689L411.479 206.964V191.096Z" fill="white"/>
<path opacity="0.5" d="M432.256 203.79L449.221 213.515V229.383L432.256 219.657V203.79Z" fill="white"/>
<path opacity="0.5" d="M453.137 215.562L470.101 225.288V241.156L453.137 231.43V215.562Z" fill="white"/>
<path opacity="0.5" d="M474.016 228.086L490.98 237.812V253.68L474.016 243.954V228.086Z" fill="white"/>
<path opacity="0.5" d="M295.643 113.327L389.361 167.073V215.086L295.643 161.306V113.327Z" fill="url(#paint12_linear_3352_109472)"/>
<path opacity="0.5" d="M305.088 131.037L379.541 173.727V179.152L305.088 136.463V131.037Z" fill="white"/>
<path opacity="0.5" d="M305.088 141.957L364.705 176.149V181.575L305.088 147.348V141.957Z" fill="white"/>
<path opacity="0.6" d="M301.551 0L524.394 127.83V151.239L301.551 23.4434V0Z" fill="url(#paint13_linear_3352_109472)"/>
<path opacity="0.4" d="M324.221 25.0634C324.221 27.4942 323.006 28.627 321.507 27.6122C320.008 26.5974 318.793 23.8362 318.793 21.4054C318.793 18.9746 320.008 17.8418 321.507 18.8566C323.006 19.8714 324.221 22.6562 324.221 25.0634Z" fill="white"/>
<path opacity="0.7" d="M314.721 19.6352C314.721 22.066 313.506 23.1988 312.007 22.184C310.508 21.1692 309.293 18.408 309.293 15.9772C309.293 13.5464 310.508 12.4136 312.007 13.4284C313.506 14.4432 314.721 17.228 314.721 19.6352Z" fill="white"/>
<path opacity="0.6" d="M645.19 278L590.137 309L645.19 341.776L734.074 299.031L645.19 278Z" fill="url(#paint14_linear_3352_109472)"/>
<path d="M590.27 179.365L644.862 210.69L644.837 340.744L590.244 309.445L590.27 179.365Z" fill="white"/>
<path d="M580.004 196.402L623.45 221.302V233.252L580.004 208.351V196.402Z" fill="url(#paint15_linear_3352_109472)"/>
<path opacity="0.4" d="M597.383 251.729L638.553 275.344V311.5L597.383 287.884V251.729Z" fill="url(#paint16_linear_3352_109472)"/>
<path opacity="0.5" d="M596.969 224.001L638.76 247.977V252.063L596.969 228.087V224.001Z" fill="#D2D2E5"/>
<path opacity="0.5" d="M596.969 232.225L633.096 252.937V257.022L596.969 236.31V232.225Z" fill="#D2D2E5"/>
<path opacity="0.5" d="M596.969 240.345L627.64 257.922V262.008L596.969 244.431V240.345Z" fill="#D2D2E5"/>
<path opacity="0.5" d="M590.27 179.365L644.862 210.69V228.113L590.244 196.814L590.27 179.365Z" fill="url(#paint17_linear_3352_109472)"/>
<defs>
<linearGradient id="paint0_linear_3352_109472" x1="400.968" y1="263.307" x2="220.007" y2="435.307" gradientUnits="userSpaceOnUse">
<stop stop-color="#C0C1DB" stop-opacity="0.62"/>
<stop offset="1" stop-color="#ADAED1"/>
</linearGradient>
<linearGradient id="paint1_linear_3352_109472" x1="400.968" y1="263.307" x2="220.007" y2="435.307" gradientUnits="userSpaceOnUse">
<stop stop-color="#C0C1DB" stop-opacity="0.62"/>
<stop offset="1" stop-color="#ADAED1"/>
</linearGradient>
<linearGradient id="paint2_linear_3352_109472" x1="400.968" y1="263.307" x2="220.007" y2="435.307" gradientUnits="userSpaceOnUse">
<stop stop-color="#C0C1DB" stop-opacity="0.62"/>
<stop offset="1" stop-color="#ADAED1"/>
</linearGradient>
<linearGradient id="paint3_linear_3352_109472" x1="394.063" y1="311.742" x2="225.561" y2="454.496" gradientUnits="userSpaceOnUse">
<stop stop-color="#7778B3"/>
<stop offset="1" stop-color="#ADAED1"/>
</linearGradient>
<linearGradient id="paint4_linear_3352_109472" x1="394.063" y1="311.742" x2="225.561" y2="454.496" gradientUnits="userSpaceOnUse">
<stop stop-color="#7778B3"/>
<stop offset="1" stop-color="#ADAED1"/>
</linearGradient>
<linearGradient id="paint5_linear_3352_109472" x1="394.063" y1="311.742" x2="225.561" y2="454.496" gradientUnits="userSpaceOnUse">
<stop stop-color="#7778B3"/>
<stop offset="1" stop-color="#ADAED1"/>
</linearGradient>
<linearGradient id="paint6_linear_3352_109472" x1="386.705" y1="304.422" x2="215.442" y2="449.516" gradientUnits="userSpaceOnUse">
<stop stop-color="#7778B3"/>
<stop offset="1" stop-color="#ADAED1"/>
</linearGradient>
<linearGradient id="paint7_linear_3352_109472" x1="386.705" y1="304.422" x2="215.442" y2="449.516" gradientUnits="userSpaceOnUse">
<stop stop-color="#7778B3"/>
<stop offset="1" stop-color="#ADAED1"/>
</linearGradient>
<linearGradient id="paint8_linear_3352_109472" x1="386.705" y1="304.422" x2="215.442" y2="449.516" gradientUnits="userSpaceOnUse">
<stop stop-color="#7778B3"/>
<stop offset="1" stop-color="#ADAED1"/>
</linearGradient>
<linearGradient id="paint9_linear_3352_109472" x1="574.637" y1="212.5" x2="516.715" y2="319.953" gradientUnits="userSpaceOnUse">
<stop stop-color="#F7F7FA"/>
<stop offset="1" stop-color="#7778B3" stop-opacity="0"/>
</linearGradient>
<linearGradient id="paint10_linear_3352_109472" x1="296.911" y1="38.9164" x2="344.004" y2="112.239" gradientUnits="userSpaceOnUse">
<stop stop-color="#00BBB4" stop-opacity="0.32"/>
<stop offset="1" stop-color="white" stop-opacity="0"/>
</linearGradient>
<linearGradient id="paint11_linear_3352_109472" x1="454.046" y1="173.026" x2="410.171" y2="287.092" gradientUnits="userSpaceOnUse">
<stop stop-color="#7778B3"/>
<stop offset="1" stop-color="#7778B3" stop-opacity="0"/>
</linearGradient>
<linearGradient id="paint12_linear_3352_109472" x1="338.143" y1="109.98" x2="296.053" y2="210.761" gradientUnits="userSpaceOnUse">
<stop stop-color="#7778B3"/>
<stop offset="1" stop-color="#7778B3" stop-opacity="0"/>
</linearGradient>
<linearGradient id="paint13_linear_3352_109472" x1="402.608" y1="-4.97496" x2="359.616" y2="159.715" gradientUnits="userSpaceOnUse">
<stop stop-color="#7778B3"/>
<stop offset="1" stop-color="#7778B3" stop-opacity="0"/>
</linearGradient>
<linearGradient id="paint14_linear_3352_109472" x1="740.18" y1="412.341" x2="753.751" y2="320.743" gradientUnits="userSpaceOnUse">
<stop stop-color="#F7F7FA"/>
<stop offset="1" stop-color="#7778B3" stop-opacity="0"/>
</linearGradient>
<linearGradient id="paint15_linear_3352_109472" x1="586.473" y1="196.489" x2="625.1" y2="242.879" gradientUnits="userSpaceOnUse">
<stop stop-color="#00BBB4" stop-opacity="0.32"/>
<stop offset="1" stop-color="white" stop-opacity="0"/>
</linearGradient>
<linearGradient id="paint16_linear_3352_109472" x1="616.053" y1="249.762" x2="586.459" y2="302.759" gradientUnits="userSpaceOnUse">
<stop stop-color="#7778B3"/>
<stop offset="1" stop-color="#7778B3" stop-opacity="0"/>
</linearGradient>
<linearGradient id="paint17_linear_3352_109472" x1="615.013" y1="177.762" x2="597.6" y2="228.485" gradientUnits="userSpaceOnUse">
<stop stop-color="#7778B3"/>
<stop offset="1" stop-color="#7778B3" stop-opacity="0"/>
</linearGradient>
</defs>
</svg>
