<svg width="720" height="375" viewBox="0 0 720 375" fill="none" xmlns="http://www.w3.org/2000/svg">
<g opacity="0.3">
<path d="M114.21 229.07L166.231 199.035C170.222 196.731 170.218 193.602 166.08 191.213L160.658 188.082C153.665 184.045 149.958 184.538 143.683 185.03L54.9848 190.762C50.5641 191.007 48.1403 191.583 44.4347 193.722L39.4464 196.602C35.7407 198.742 35.7434 201.212 39.4536 203.354L77.9827 225.599L64.8705 233.169C61.3074 235.226 61.31 237.696 65.0202 239.838L74.4385 245.276C78.1487 247.418 82.2845 247.502 85.8476 245.445L99.1024 237.792L105.667 241.582C109.377 243.724 113.655 243.726 117.361 241.586L120.781 239.611C124.487 237.472 124.627 235.084 120.774 232.86L114.21 229.07ZM69.1166 203.035L123.448 199.349L93.0902 216.876L69.1166 203.035Z" fill="url(#paint0_linear_3352_109430)"/>
<path d="M244.496 289.972C273.143 273.433 276.116 252.767 251.999 238.844C227.883 224.92 192.089 226.636 163.442 243.176C134.794 259.716 131.822 280.381 155.938 294.305C180.054 308.228 215.848 306.512 244.496 289.972ZM185.275 255.781C203.375 245.331 222.768 242.703 234.041 249.212C245.315 255.72 240.906 266.999 222.805 277.449C204.847 287.818 185.312 290.363 174.039 283.854C162.765 277.346 167.317 266.149 185.275 255.781Z" fill="url(#paint1_linear_3352_109430)"/>
<path d="M319.578 347.639L371.599 317.605C375.59 315.301 375.587 312.172 371.448 309.783L366.026 306.652C359.033 302.615 355.326 303.107 349.052 303.599L260.353 309.331C255.932 309.577 253.508 310.152 249.803 312.292L244.814 315.172C241.109 317.311 241.111 319.781 244.822 321.923L283.351 344.168L270.239 351.738C266.675 353.795 266.678 356.266 270.388 358.408L279.807 363.845C283.517 365.987 287.653 366.071 291.216 364.014L304.47 356.361L311.035 360.151C314.745 362.293 319.023 362.295 322.729 360.155L326.149 358.181C329.855 356.041 329.995 353.653 326.142 351.429L319.578 347.639ZM274.485 321.604L328.816 317.919L298.458 335.446L274.485 321.604Z" fill="url(#paint2_linear_3352_109430)"/>
</g>
<g opacity="0.2">
<path d="M142.031 211.905L213.122 170.861C218.576 167.712 219.43 163.933 215.086 161.425L209.394 158.138C202.054 153.901 197.44 154.835 189.724 156.003L80.9908 171.041C75.5826 171.742 72.4964 172.659 67.4325 175.582L60.6156 179.518C55.5516 182.442 54.877 185.426 58.7717 187.674L99.2163 211.025L81.2976 221.371C76.4284 224.182 75.7538 227.166 79.6485 229.414L89.5349 235.122C93.4296 237.371 98.4033 237.094 103.273 234.283L121.386 223.825L128.277 227.803C132.171 230.052 137.34 229.662 142.404 226.739L147.078 224.04C152.142 221.116 152.967 218.219 148.922 215.884L142.031 211.905ZM94.6962 184.576L161.348 175.154L119.862 199.106L94.6962 184.576Z" fill="url(#paint3_linear_3352_109430)"/>
<path d="M282.723 273.568C321.872 250.965 331.134 225.726 305.819 211.11C280.503 196.495 236.788 201.842 197.64 224.444C158.491 247.047 149.229 272.286 174.545 286.902C199.86 301.517 243.575 296.17 282.723 273.568ZM220.559 237.677C245.294 223.395 269.444 218.447 281.278 225.279C293.112 232.111 284.69 246.141 259.955 260.422C235.414 274.591 211.114 279.453 199.28 272.62C187.446 265.788 196.018 251.845 220.559 237.677Z" fill="url(#paint4_linear_3352_109430)"/>
<path d="M357.61 336.37L428.701 295.325C434.154 292.177 435.009 288.397 430.665 285.889L424.972 282.603C417.632 278.365 413.018 279.299 405.303 280.467L296.569 295.505C291.161 296.206 288.075 297.123 283.011 300.047L276.194 303.983C271.13 306.906 270.456 309.89 274.35 312.139L314.795 335.49L296.876 345.835C292.007 348.646 291.332 351.63 295.227 353.879L305.113 359.587C309.008 361.835 313.982 361.558 318.851 358.747L336.965 348.289L343.855 352.267C347.75 354.516 352.918 354.127 357.982 351.203L362.657 348.504C367.721 345.58 368.545 342.683 364.501 340.348L357.61 336.37ZM310.275 309.041L376.926 299.618L335.44 323.57L310.275 309.041Z" fill="url(#paint5_linear_3352_109430)"/>
</g>
<path d="M102.789 219.908L155.663 189.381C159.719 187.04 159.716 183.86 155.51 181.431L149.998 178.249C142.891 174.146 139.123 174.647 132.746 175.146L42.593 180.972C38.0998 181.222 35.6362 181.807 31.8698 183.981L26.7997 186.909C23.0333 189.083 23.036 191.594 26.8071 193.771L65.9679 216.38L52.6407 224.075C49.0192 226.166 49.0219 228.676 52.7929 230.854L62.3655 236.38C66.1366 238.558 70.3403 238.643 73.9618 236.552L87.4339 228.774L94.1057 232.626C97.8767 234.803 102.225 234.805 105.992 232.63L109.468 230.623C113.235 228.448 113.377 226.021 109.461 223.76L102.789 219.908ZM56.9564 193.447L112.179 189.701L81.3232 207.515L56.9564 193.447Z" fill="url(#paint6_linear_3352_109430)"/>
<path d="M235.211 281.81C264.328 264.999 267.35 243.995 242.838 229.843C218.326 215.691 181.945 217.435 152.828 234.246C123.711 251.057 120.69 272.061 145.201 286.213C169.713 300.365 206.094 298.62 235.211 281.81ZM175.019 247.058C193.417 236.436 213.127 233.765 224.585 240.381C236.043 246.996 231.562 258.46 213.165 269.081C194.912 279.619 175.057 282.207 163.599 275.591C152.141 268.976 156.767 257.596 175.019 247.058Z" fill="url(#paint7_linear_3352_109430)"/>
<path d="M311.525 340.422L364.399 309.895C368.455 307.553 368.452 304.373 364.245 301.945L358.734 298.762C351.627 294.659 347.859 295.16 341.481 295.66L251.328 301.486C246.835 301.735 244.372 302.32 240.605 304.495L235.535 307.422C231.769 309.597 231.771 312.107 235.543 314.284L274.703 336.894L261.376 344.588C257.755 346.679 257.757 349.19 261.528 351.367L271.101 356.894C274.872 359.071 279.076 359.156 282.697 357.065L296.169 349.287L302.841 353.139C306.612 355.316 310.961 355.318 314.727 353.143L318.204 351.136C321.97 348.962 322.112 346.535 318.196 344.274L311.525 340.422ZM265.692 313.96L320.914 310.214L290.059 328.028L265.692 313.96Z" fill="url(#paint8_linear_3352_109430)"/>
<path opacity="0.6" d="M413.277 139.5L286.277 171.5L518.277 304.5L656.277 249L413.277 139.5Z" fill="url(#paint9_linear_3352_109430)"/>
<path d="M287.193 0L510.345 127.966L510.311 300.771L287.158 172.805L287.193 0Z" fill="white"/>
<path d="M272.391 42.5869L330.05 75.6533V91.5211L272.391 58.4888V42.5869Z" fill="url(#paint10_linear_3352_109430)"/>
<path opacity="0.5" d="M302.232 86.1982L430.258 159.634V165.059L302.232 91.624V86.1982Z" fill="#D2D2E5"/>
<path opacity="0.5" d="M302.232 97.1177L412.675 160.452V165.878L302.232 102.543V97.1177Z" fill="#D2D2E5"/>
<path opacity="0.5" d="M302.232 107.935L396.226 161.851V167.277L302.232 113.36V107.935Z" fill="#D2D2E5"/>
<path opacity="0.5" d="M388.637 176.729L501.209 241.293V289.305L388.637 224.742V176.729Z" fill="url(#paint11_linear_3352_109430)"/>
<path opacity="0.5" d="M397.119 191.096L414.084 200.822V216.689L397.119 206.964V191.096Z" fill="white"/>
<path opacity="0.5" d="M417.896 203.79L434.861 213.515V229.383L417.896 219.657V203.79Z" fill="white"/>
<path opacity="0.5" d="M438.777 215.562L455.742 225.288V241.156L438.777 231.43V215.562Z" fill="white"/>
<path opacity="0.5" d="M459.656 228.086L476.621 237.812V253.68L459.656 243.954V228.086Z" fill="white"/>
<path opacity="0.5" d="M281.283 113.327L375.002 167.073V215.086L281.283 161.306V113.327Z" fill="url(#paint12_linear_3352_109430)"/>
<path opacity="0.5" d="M290.729 131.037L365.181 173.727V179.152L290.729 136.463V131.037Z" fill="white"/>
<path opacity="0.5" d="M290.729 141.957L350.346 176.149V181.575L290.729 147.348V141.957Z" fill="white"/>
<path opacity="0.6" d="M287.191 0L510.035 127.83V151.239L287.191 23.4434V0Z" fill="url(#paint13_linear_3352_109430)"/>
<path opacity="0.4" d="M309.862 25.0634C309.862 27.4942 308.646 28.627 307.148 27.6122C305.649 26.5974 304.434 23.8362 304.434 21.4054C304.434 18.9746 305.649 17.8418 307.148 18.8566C308.646 19.8714 309.862 22.6562 309.862 25.0634Z" fill="white"/>
<path opacity="0.7" d="M300.362 19.6352C300.362 22.066 299.146 23.1988 297.648 22.184C296.149 21.1692 294.934 18.408 294.934 15.9772C294.934 13.5464 296.149 12.4136 297.648 13.4284C299.146 14.4432 300.362 17.228 300.362 19.6352Z" fill="white"/>
<path opacity="0.6" d="M630.83 278L575.777 309L630.83 341.776L719.715 299.031L630.83 278Z" fill="url(#paint14_linear_3352_109430)"/>
<path d="M575.911 179.365L630.503 210.69L630.477 340.744L575.885 309.445L575.911 179.365Z" fill="white"/>
<path d="M565.645 196.402L609.091 221.302V233.252L565.645 208.351V196.402Z" fill="url(#paint15_linear_3352_109430)"/>
<path opacity="0.4" d="M583.023 251.729L624.194 275.344V311.5L583.023 287.884V251.729Z" fill="url(#paint16_linear_3352_109430)"/>
<path opacity="0.5" d="M582.609 224.001L624.401 247.977V252.063L582.609 228.087V224.001Z" fill="#D2D2E5"/>
<path opacity="0.5" d="M582.609 232.225L618.737 252.937V257.022L582.609 236.31V232.225Z" fill="#D2D2E5"/>
<path opacity="0.5" d="M582.609 240.345L613.28 257.922V262.008L582.609 244.431V240.345Z" fill="#D2D2E5"/>
<path opacity="0.5" d="M575.911 179.365L630.503 210.69V228.113L575.885 196.814L575.911 179.365Z" fill="url(#paint17_linear_3352_109430)"/>
<defs>
<linearGradient id="paint0_linear_3352_109430" x1="392.423" y1="319.917" x2="226.632" y2="461.642" gradientUnits="userSpaceOnUse">
<stop stop-color="#7778B3"/>
<stop offset="1" stop-color="#ADAED1"/>
</linearGradient>
<linearGradient id="paint1_linear_3352_109430" x1="392.423" y1="319.917" x2="226.632" y2="461.642" gradientUnits="userSpaceOnUse">
<stop stop-color="#7778B3"/>
<stop offset="1" stop-color="#ADAED1"/>
</linearGradient>
<linearGradient id="paint2_linear_3352_109430" x1="392.423" y1="319.917" x2="226.632" y2="461.642" gradientUnits="userSpaceOnUse">
<stop stop-color="#7778B3"/>
<stop offset="1" stop-color="#ADAED1"/>
</linearGradient>
<linearGradient id="paint3_linear_3352_109430" x1="407.248" y1="267.379" x2="250.043" y2="429.459" gradientUnits="userSpaceOnUse">
<stop stop-color="#C0C1DB" stop-opacity="0.62"/>
<stop offset="1" stop-color="#ADAED1"/>
</linearGradient>
<linearGradient id="paint4_linear_3352_109430" x1="407.248" y1="267.379" x2="250.043" y2="429.459" gradientUnits="userSpaceOnUse">
<stop stop-color="#C0C1DB" stop-opacity="0.62"/>
<stop offset="1" stop-color="#ADAED1"/>
</linearGradient>
<linearGradient id="paint5_linear_3352_109430" x1="407.248" y1="267.379" x2="250.043" y2="429.459" gradientUnits="userSpaceOnUse">
<stop stop-color="#C0C1DB" stop-opacity="0.62"/>
<stop offset="1" stop-color="#ADAED1"/>
</linearGradient>
<linearGradient id="paint6_linear_3352_109430" x1="385.564" y1="312.246" x2="217.054" y2="456.294" gradientUnits="userSpaceOnUse">
<stop stop-color="#7778B3"/>
<stop offset="1" stop-color="#ADAED1"/>
</linearGradient>
<linearGradient id="paint7_linear_3352_109430" x1="385.564" y1="312.246" x2="217.054" y2="456.294" gradientUnits="userSpaceOnUse">
<stop stop-color="#7778B3"/>
<stop offset="1" stop-color="#ADAED1"/>
</linearGradient>
<linearGradient id="paint8_linear_3352_109430" x1="385.564" y1="312.246" x2="217.054" y2="456.294" gradientUnits="userSpaceOnUse">
<stop stop-color="#7778B3"/>
<stop offset="1" stop-color="#ADAED1"/>
</linearGradient>
<linearGradient id="paint9_linear_3352_109430" x1="560.277" y1="212.5" x2="502.356" y2="319.953" gradientUnits="userSpaceOnUse">
<stop stop-color="#F7F7FA"/>
<stop offset="1" stop-color="#7778B3" stop-opacity="0"/>
</linearGradient>
<linearGradient id="paint10_linear_3352_109430" x1="282.551" y1="38.9164" x2="329.645" y2="112.239" gradientUnits="userSpaceOnUse">
<stop stop-color="#00BBB4" stop-opacity="0.32"/>
<stop offset="1" stop-color="white" stop-opacity="0"/>
</linearGradient>
<linearGradient id="paint11_linear_3352_109430" x1="439.687" y1="173.026" x2="395.811" y2="287.092" gradientUnits="userSpaceOnUse">
<stop stop-color="#7778B3"/>
<stop offset="1" stop-color="#7778B3" stop-opacity="0"/>
</linearGradient>
<linearGradient id="paint12_linear_3352_109430" x1="323.783" y1="109.98" x2="281.693" y2="210.761" gradientUnits="userSpaceOnUse">
<stop stop-color="#7778B3"/>
<stop offset="1" stop-color="#7778B3" stop-opacity="0"/>
</linearGradient>
<linearGradient id="paint13_linear_3352_109430" x1="388.248" y1="-4.97496" x2="345.257" y2="159.715" gradientUnits="userSpaceOnUse">
<stop stop-color="#7778B3"/>
<stop offset="1" stop-color="#7778B3" stop-opacity="0"/>
</linearGradient>
<linearGradient id="paint14_linear_3352_109430" x1="725.821" y1="412.341" x2="739.391" y2="320.743" gradientUnits="userSpaceOnUse">
<stop stop-color="#F7F7FA"/>
<stop offset="1" stop-color="#7778B3" stop-opacity="0"/>
</linearGradient>
<linearGradient id="paint15_linear_3352_109430" x1="572.114" y1="196.489" x2="610.74" y2="242.879" gradientUnits="userSpaceOnUse">
<stop stop-color="#00BBB4" stop-opacity="0.32"/>
<stop offset="1" stop-color="white" stop-opacity="0"/>
</linearGradient>
<linearGradient id="paint16_linear_3352_109430" x1="601.694" y1="249.762" x2="572.099" y2="302.759" gradientUnits="userSpaceOnUse">
<stop stop-color="#7778B3"/>
<stop offset="1" stop-color="#7778B3" stop-opacity="0"/>
</linearGradient>
<linearGradient id="paint17_linear_3352_109430" x1="600.654" y1="177.762" x2="583.241" y2="228.485" gradientUnits="userSpaceOnUse">
<stop stop-color="#7778B3"/>
<stop offset="1" stop-color="#7778B3" stop-opacity="0"/>
</linearGradient>
</defs>
</svg>
