<svg width="735" height="375" viewBox="0 0 735 375" fill="none" xmlns="http://www.w3.org/2000/svg">
<path opacity="0.6" d="M427.637 139.5L300.637 171.5L532.637 304.5L670.637 249L427.637 139.5Z" fill="url(#paint0_linear_3352_109573)"/>
<path d="M301.552 0L524.704 127.966L524.67 300.771L301.518 172.805L301.552 0Z" fill="white"/>
<path d="M286.75 42.5869L344.41 75.6533V91.5211L286.75 58.4888V42.5869Z" fill="url(#paint1_linear_3352_109573)"/>
<path opacity="0.5" d="M316.592 86.1982L444.618 159.634V165.059L316.592 91.624V86.1982Z" fill="#D2D2E5"/>
<path opacity="0.5" d="M316.592 97.1177L427.035 160.452V165.878L316.592 102.543V97.1177Z" fill="#D2D2E5"/>
<path opacity="0.5" d="M316.592 107.935L410.585 161.851V167.277L316.592 113.36V107.935Z" fill="#D2D2E5"/>
<path opacity="0.5" d="M402.996 176.729L515.568 241.293V289.305L402.996 224.742V176.729Z" fill="url(#paint2_linear_3352_109573)"/>
<path opacity="0.5" d="M411.479 191.096L428.443 200.822V216.689L411.479 206.964V191.096Z" fill="white"/>
<path opacity="0.5" d="M432.256 203.79L449.221 213.515V229.383L432.256 219.657V203.79Z" fill="white"/>
<path opacity="0.5" d="M453.137 215.562L470.101 225.288V241.156L453.137 231.43V215.562Z" fill="white"/>
<path opacity="0.5" d="M474.016 228.086L490.98 237.812V253.68L474.016 243.954V228.086Z" fill="white"/>
<path opacity="0.5" d="M295.643 113.327L389.361 167.073V215.086L295.643 161.306V113.327Z" fill="url(#paint3_linear_3352_109573)"/>
<path opacity="0.5" d="M305.088 131.037L379.541 173.727V179.152L305.088 136.463V131.037Z" fill="white"/>
<path opacity="0.5" d="M305.088 141.957L364.705 176.149V181.575L305.088 147.348V141.957Z" fill="white"/>
<path opacity="0.6" d="M301.551 0L524.394 127.83V151.239L301.551 23.4434V0Z" fill="url(#paint4_linear_3352_109573)"/>
<path opacity="0.4" d="M324.221 25.0634C324.221 27.4942 323.006 28.627 321.507 27.6122C320.008 26.5974 318.793 23.8362 318.793 21.4054C318.793 18.9746 320.008 17.8418 321.507 18.8566C323.006 19.8714 324.221 22.6562 324.221 25.0634Z" fill="white"/>
<path opacity="0.7" d="M314.721 19.6352C314.721 22.066 313.506 23.1988 312.007 22.184C310.508 21.1692 309.293 18.408 309.293 15.9772C309.293 13.5464 310.508 12.4136 312.007 13.4284C313.506 14.4432 314.721 17.228 314.721 19.6352Z" fill="white"/>
<path opacity="0.6" d="M645.19 278L590.137 309L645.19 341.776L734.074 299.031L645.19 278Z" fill="url(#paint5_linear_3352_109573)"/>
<path d="M590.27 179.365L644.862 210.69L644.837 340.744L590.244 309.445L590.27 179.365Z" fill="white"/>
<path d="M580.004 196.402L623.45 221.302V233.252L580.004 208.351V196.402Z" fill="url(#paint6_linear_3352_109573)"/>
<path opacity="0.4" d="M597.383 251.729L638.553 275.344V311.5L597.383 287.884V251.729Z" fill="url(#paint7_linear_3352_109573)"/>
<path opacity="0.5" d="M596.969 224.001L638.76 247.977V252.063L596.969 228.087V224.001Z" fill="#D2D2E5"/>
<path opacity="0.5" d="M596.969 232.225L633.096 252.937V257.022L596.969 236.31V232.225Z" fill="#D2D2E5"/>
<path opacity="0.5" d="M596.969 240.345L627.64 257.922V262.008L596.969 244.431V240.345Z" fill="#D2D2E5"/>
<path opacity="0.5" d="M590.27 179.365L644.862 210.69V228.113L590.244 196.814L590.27 179.365Z" fill="url(#paint8_linear_3352_109573)"/>
<path opacity="0.3" fill-rule="evenodd" clip-rule="evenodd" d="M126.991 260.49L250.766 242.569C253.351 242.204 256.055 242.229 258.618 242.643C261.181 243.056 263.516 243.844 265.397 244.931C267.279 246.017 268.644 247.365 269.36 248.845C270.077 250.325 270.121 251.886 269.488 253.378L238.448 324.84C237.749 326.348 236.378 327.723 234.471 328.83C232.565 329.937 230.19 330.736 227.582 331.149C224.975 331.561 222.225 331.572 219.608 331.181C216.991 330.789 214.597 330.009 212.664 328.917L119.929 275.376C118.038 274.26 116.687 272.878 116.008 271.367C115.33 269.856 115.349 268.269 116.063 266.763C116.778 265.258 118.162 263.887 120.079 262.786C121.996 261.685 124.379 260.894 126.991 260.49ZM223.705 263.096C225.378 261.973 227.474 262.101 229.245 263.124L233.538 265.602C235.378 266.664 235.598 267.874 233.586 268.801L209.316 281.318C207.37 282.205 205.615 282.274 203.843 281.252L202.14 280.268C200.368 279.245 200.488 278.232 202.093 277.148L223.705 263.096ZM186.907 282.611C190.39 280.6 196.133 280.668 199.608 282.674C203.219 284.759 203.2 287.996 199.717 290.007C196.234 292.018 190.627 292.029 187.016 289.944C183.54 287.938 183.424 284.622 186.907 282.611Z" fill="url(#paint9_linear_3352_109573)"/>
<path opacity="0.2" fill-rule="evenodd" clip-rule="evenodd" d="M141.03 258.158L299.795 220.036C303.108 219.251 306.413 218.929 309.393 219.101C312.373 219.274 314.928 219.936 316.809 221.022C318.691 222.109 319.837 223.583 320.136 225.304C320.435 227.024 319.878 228.933 318.518 230.845L252.488 322.508C251.04 324.448 248.82 326.314 246.05 327.919C243.279 329.525 240.054 330.815 236.696 331.661C233.338 332.507 229.963 332.879 226.907 332.74C223.852 332.602 221.222 331.958 219.28 330.871L126.545 277.331C124.664 276.209 123.548 274.691 123.308 272.927C123.068 271.163 123.712 269.215 125.177 267.276C126.642 265.337 128.877 263.475 131.658 261.875C134.439 260.276 137.67 258.994 141.03 258.158ZM258.584 248.734C261.074 247.139 263.594 247.022 265.366 248.044L269.658 250.523C271.498 251.585 271.295 253.04 268.464 254.438L233.81 272.951C231.076 274.293 228.897 274.607 227.126 273.584L225.422 272.601C223.65 271.578 224.194 270.32 226.587 268.781L258.584 248.734ZM205.829 277.461C210.887 274.541 217.902 273.874 221.377 275.881C224.988 277.966 223.697 281.937 218.639 284.857C213.582 287.777 206.703 288.522 203.092 286.437C199.617 284.431 200.772 280.381 205.829 277.461Z" fill="url(#paint10_linear_3352_109573)"/>
<path fill-rule="evenodd" clip-rule="evenodd" d="M117.891 256.49L241.666 238.569C244.251 238.204 246.955 238.229 249.518 238.643C252.081 239.056 254.416 239.844 256.298 240.931C258.179 242.017 259.544 243.365 260.261 244.845C260.977 246.325 261.021 247.886 260.388 249.378L229.349 320.84C228.649 322.348 227.278 323.723 225.372 324.83C223.465 325.937 221.09 326.736 218.483 327.149C215.875 327.561 213.126 327.572 210.509 327.181C207.891 326.789 205.497 326.009 203.565 324.917L110.829 271.376C108.939 270.26 107.587 268.878 106.909 267.367C106.231 265.856 106.25 264.269 106.964 262.763C107.678 261.258 109.063 259.887 110.98 258.786C112.897 257.685 115.28 256.894 117.891 256.49ZM214.606 259.096C216.278 257.973 218.374 258.101 220.146 259.124L224.439 261.602C226.278 262.664 226.499 263.874 224.486 264.801L200.216 277.318C198.27 278.205 196.515 278.274 194.743 277.252L193.04 276.268C191.268 275.245 191.389 274.232 192.994 273.148L214.606 259.096ZM177.807 278.611C181.29 276.6 187.034 276.668 190.509 278.674C194.12 280.759 194.1 283.996 190.617 286.007C187.134 288.018 181.527 288.029 177.916 285.944C174.441 283.938 174.324 280.622 177.807 278.611Z" fill="url(#paint11_linear_3352_109573)"/>
<defs>
<linearGradient id="paint0_linear_3352_109573" x1="574.637" y1="212.5" x2="516.715" y2="319.953" gradientUnits="userSpaceOnUse">
<stop stop-color="#F7F7FA"/>
<stop offset="1" stop-color="#7778B3" stop-opacity="0"/>
</linearGradient>
<linearGradient id="paint1_linear_3352_109573" x1="296.911" y1="38.9164" x2="344.004" y2="112.239" gradientUnits="userSpaceOnUse">
<stop stop-color="#00BBB4" stop-opacity="0.32"/>
<stop offset="1" stop-color="white" stop-opacity="0"/>
</linearGradient>
<linearGradient id="paint2_linear_3352_109573" x1="454.046" y1="173.026" x2="410.171" y2="287.092" gradientUnits="userSpaceOnUse">
<stop stop-color="#7778B3"/>
<stop offset="1" stop-color="#7778B3" stop-opacity="0"/>
</linearGradient>
<linearGradient id="paint3_linear_3352_109573" x1="338.143" y1="109.98" x2="296.053" y2="210.761" gradientUnits="userSpaceOnUse">
<stop stop-color="#7778B3"/>
<stop offset="1" stop-color="#7778B3" stop-opacity="0"/>
</linearGradient>
<linearGradient id="paint4_linear_3352_109573" x1="402.608" y1="-4.97496" x2="359.616" y2="159.715" gradientUnits="userSpaceOnUse">
<stop stop-color="#7778B3"/>
<stop offset="1" stop-color="#7778B3" stop-opacity="0"/>
</linearGradient>
<linearGradient id="paint5_linear_3352_109573" x1="740.18" y1="412.341" x2="753.751" y2="320.743" gradientUnits="userSpaceOnUse">
<stop stop-color="#F7F7FA"/>
<stop offset="1" stop-color="#7778B3" stop-opacity="0"/>
</linearGradient>
<linearGradient id="paint6_linear_3352_109573" x1="586.473" y1="196.489" x2="625.1" y2="242.879" gradientUnits="userSpaceOnUse">
<stop stop-color="#00BBB4" stop-opacity="0.32"/>
<stop offset="1" stop-color="white" stop-opacity="0"/>
</linearGradient>
<linearGradient id="paint7_linear_3352_109573" x1="616.053" y1="249.762" x2="586.459" y2="302.759" gradientUnits="userSpaceOnUse">
<stop stop-color="#7778B3"/>
<stop offset="1" stop-color="#7778B3" stop-opacity="0"/>
</linearGradient>
<linearGradient id="paint8_linear_3352_109573" x1="615.013" y1="177.762" x2="597.6" y2="228.485" gradientUnits="userSpaceOnUse">
<stop stop-color="#7778B3"/>
<stop offset="1" stop-color="#7778B3" stop-opacity="0"/>
</linearGradient>
<linearGradient id="paint9_linear_3352_109573" x1="322.593" y1="277.953" x2="113.415" y2="303.903" gradientUnits="userSpaceOnUse">
<stop stop-color="#7778B3"/>
<stop offset="1" stop-color="#ADAED1"/>
</linearGradient>
<linearGradient id="paint10_linear_3352_109573" x1="357.731" y1="242.137" x2="117.673" y2="308.989" gradientUnits="userSpaceOnUse">
<stop stop-color="#C0C1DB" stop-opacity="0.62"/>
<stop offset="1" stop-color="#ADAED1"/>
</linearGradient>
<linearGradient id="paint11_linear_3352_109573" x1="313.494" y1="273.953" x2="104.315" y2="299.903" gradientUnits="userSpaceOnUse">
<stop stop-color="#7778B3"/>
<stop offset="1" stop-color="#ADAED1"/>
</linearGradient>
</defs>
</svg>
