<svg width="23" height="24" viewBox="0 0 23 24" fill="none" xmlns="http://www.w3.org/2000/svg">
<path d="M11.2956 13.0657H10.1121L10.9371 13.9142L11.8444 14.8474C11.9468 14.9611 11.9956 15.0868 11.9956 15.2488C11.9956 15.4116 11.9466 15.5206 11.8551 15.6121C11.7667 15.7005 11.6548 15.7526 11.4782 15.7526C11.3016 15.7526 11.1897 15.7005 11.1013 15.6121L8.38829 12.8991C8.29992 12.8107 8.24778 12.6988 8.24778 12.5222C8.24778 12.3456 8.29992 12.2337 8.38829 12.1453L11.1013 9.43228C11.1897 9.34391 11.3016 9.29177 11.4782 9.29177C11.6548 9.29177 11.7667 9.34391 11.8551 9.43228C11.9765 9.5537 12.0299 9.68124 12.0344 9.83624L12.0345 9.83741C12.039 9.98172 11.9963 10.0799 11.8969 10.171L11.8889 10.1784L11.8812 10.186L10.9421 11.1252L10.0885 11.9787H11.2956H14.6087C14.7783 11.9787 14.8972 12.0305 14.9991 12.1318C15.1003 12.2336 15.1521 12.3525 15.1521 12.5222C15.1521 12.6922 15.1002 12.8105 14.9991 12.9116C14.897 13.0137 14.7781 13.0657 14.6087 13.0657H11.2956ZM3.67387 19.8266V20.3266H4.17387H18.7826H19.2826V19.8266V5.21786V4.71786H18.7826H12.2111C12.275 4.6742 12.3359 4.62381 12.3932 4.56654C12.6428 4.31695 12.7608 3.99905 12.7608 3.65264C12.7608 3.30623 12.6428 2.9885 12.394 2.73853L12.3923 2.73687C12.1424 2.48807 11.8246 2.37003 11.4782 2.37003C11.1318 2.37003 10.8139 2.4881 10.5643 2.7377C10.3145 2.98751 10.1956 3.30551 10.1956 3.65264C10.1956 3.999 10.314 4.31653 10.5635 4.56571C10.6208 4.62334 10.6818 4.674 10.746 4.71786H4.17387H3.67387V5.21786V19.8266ZM8.55648 3.6309H8.90753L9.02676 3.30072C9.21927 2.7676 9.53657 2.34611 9.98416 2.02346L9.98441 2.02328C10.4283 1.70287 10.9212 1.54395 11.4782 1.54395C12.0352 1.54395 12.5284 1.70282 12.9731 2.02328C13.42 2.34588 13.7371 2.76742 13.9297 3.30072L14.0489 3.6309H14.4H18.7826C19.2227 3.6309 19.5873 3.7816 19.9032 4.09675C20.2187 4.41278 20.3695 4.77749 20.3695 5.21786V19.8266C20.3695 20.2668 20.2188 20.6315 19.9034 20.9474C19.5875 21.2627 19.2228 21.4135 18.7826 21.4135H4.17387C3.73351 21.4135 3.3688 21.2627 3.05277 20.9472C2.73761 20.6313 2.58691 20.2667 2.58691 19.8266V5.21786C2.58691 4.7776 2.73768 4.41296 3.05299 4.09698C3.36897 3.78167 3.73361 3.6309 4.17387 3.6309H8.55648Z" fill="#808080" stroke="#808080"/>
</svg>
